<?xml version="1.0" standalone="no"?>
<svg xmlns="http://www.w3.org/2000/svg" viewBox="0 0 100.859 116.461" width="100.859" height="116.461"><polygon fill="#000000" points="100.859,29.11525 100.859,87.34575 50.4295,116.461 0,87.34575 0,29.11525 50.4295,0"></polygon><g fill="white" color="white" transform="translate(28.429499999999997 22.5) scale(0.44)"><svg width="100.0" height="100.0" x="0.0" y="0.0" viewBox="0 0 100 100"><path d="M52.453,69.83c0,5.184,4.219,9.404,9.402,9.404c5.186,0,9.404-4.221,9.404-9.404s-4.219-9.402-9.404-9.402  C56.672,60.428,52.453,64.646,52.453,69.83z M58.398,69.83c0-1.906,1.551-3.457,3.457-3.457s3.459,1.551,3.459,3.457  c0,1.908-1.553,3.459-3.459,3.459S58.398,71.738,58.398,69.83z"></path><path d="M11.524,69.83c0,5.184,4.219,9.404,9.404,9.404c5.184,0,9.402-4.221,9.402-9.404s-4.219-9.402-9.402-9.402  C15.744,60.428,11.524,64.646,11.524,69.83z M17.471,69.83c0-1.906,1.552-3.457,3.458-3.457c1.906,0,3.457,1.551,3.457,3.457  c0,1.908-1.551,3.459-3.457,3.459C19.023,73.289,17.471,71.738,17.471,69.83z"></path><rect x="66.805" y="28.854" width="28.195" height="3.43"></rect><path d="M77.453,44.969v-1.753H64.887v-7.262h12.566V34.2H64.887v-7.263h12.396c-0.477-1.665-1.994-2.892-3.811-2.892H38.628  c-2.201,0-3.984,1.782-3.984,3.981v28.096h-2.542V31.014H9.757c0,0-4.757,18.251-4.757,19.689c0,1.44,0,14.381,0,14.381h3.074  c1.935-5.23,6.951-8.969,12.854-8.969c5.904,0,10.922,3.738,12.856,8.969h4.843h0.663h9.711c1.934-5.23,6.949-8.969,12.853-8.969  c5.838,0,10.811,3.65,12.791,8.791c1.627-0.502,2.807-2.016,2.807-3.805v-8.869H64.887v-7.263H77.453z M28.009,47.052H10.752  l2.656-11.283h14.601V47.052z"></path><rect x="66.805" y="37.871" width="23.242" height="3.43"></rect><rect x="66.805" y="46.886" width="17.146" height="3.43"></rect></svg></g><path fill="white" fill-rule="nonzero" d="M6.38 19.46Q4.84 19.46 3.36 19.04Q1.88 18.62 0.94 17.84Q0 17.05 0 16.04L0 16.04L0 13.05L0.50 13.05Q0.98 15.85 2.35 17.09Q3.72 18.34 6.13 18.34L6.13 18.34Q7.64 18.34 8.72 17.58Q9.80 16.83 9.80 15.48L9.80 15.48Q9.80 14.31 9.07 13.44Q8.34 12.57 6.72 11.62L6.72 11.62L3.28 9.58Q1.48 8.51 0.74 7.42Q0 6.33 0 4.76L0 4.76Q0 2.60 1.50 1.30Q3.00 0 5.43 0L5.43 0Q6.86 0 8.26 0.41Q9.66 0.81 10.57 1.58Q11.48 2.35 11.48 3.36L11.48 3.36L11.48 6.36L10.98 6.36Q10.50 3.56 9.17 2.34Q7.84 1.12 5.43 1.12L5.43 1.12Q4.14 1.12 3.16 1.90Q2.18 2.69 2.18 3.95L2.18 3.95Q2.18 5.10 2.90 5.85Q3.61 6.61 5.29 7.62L5.29 7.62L8.74 9.66Q10.64 10.81 11.42 11.79Q12.21 12.77 12.21 14.28L12.21 14.28Q12.21 16.63 10.64 18.05Q9.07 19.46 6.38 19.46L6.38 19.46ZM16.38 18.98L16.38 3.86Q16.38 2.44 15.99 1.75Q15.60 1.06 14.42 1.06L14.42 1.06L13.86 1.06L13.86 0.50L25.79 0.50Q28.17 0.50 28.17 2.74L28.17 2.74L28.17 4.84L27.61 4.84Q27.61 1.62 24.11 1.62L24.11 1.62L18.90 1.62L18.90 8.90L26.46 8.90L26.46 10.02L18.90 10.02L18.90 17.86L23.80 17.86Q25.73 17.86 26.82 17.16Q27.92 16.46 28.56 14.78L28.56 14.78L29.12 14.92L28.14 17.58Q27.64 18.98 26.04 18.98L26.04 18.98L16.38 18.98Z" transform="translate(35.87, 74.5)"></path></svg>